<?xml version="1.0" standalone="no"?>
<!DOCTYPE svg PUBLIC "-//W3C//DTD SVG 20010904//EN"
 "http://www.w3.org/TR/2001/REC-SVG-20010904/DTD/svg10.dtd">
<svg version="1.0" xmlns="http://www.w3.org/2000/svg"
 width="512.000000pt" height="512.000000pt" viewBox="0 0 512.000000 512.000000"
 preserveAspectRatio="xMidYMid meet">
<metadata>
Created by potrace 1.14, written by Peter Selinger 2001-2017
</metadata>
<g transform="translate(0.000000,512.000000) scale(0.100000,-0.100000)"
fill="#000000" stroke="none">
<path d="M2058 5065 c-2 -1 -28 -6 -58 -9 -30 -4 -90 -16 -133 -27 -174 -44
-287 -100 -421 -209 -49 -39 -176 -172 -194 -202 -23 -40 -59 -44 -121 -12
-86 43 -223 39 -381 -11 -230 -73 -387 -205 -490 -413 -25 -51 -100 -230 -100
-239 0 -2 14 -10 32 -17 63 -27 123 24 147 125 9 40 10 37 6 -36 -2 -44 -8
-94 -14 -112 -8 -29 -7 -32 12 -35 24 -4 24 -5 3 -63 -8 -22 -17 -56 -20 -75
-3 -19 -8 -46 -11 -60 -41 -197 -12 -483 66 -650 28 -60 87 -129 113 -131 6
-1 25 -2 41 -4 67 -6 129 59 119 123 -9 53 -11 64 -27 108 -22 60 -55 123 -94
177 -24 34 -28 45 -15 38 33 -17 157 -143 187 -188 15 -24 34 -43 41 -43 8 0
31 15 52 34 34 32 37 38 35 85 -3 84 -78 222 -178 326 -25 27 -44 49 -43 51 7
6 137 -78 168 -110 77 -77 98 -109 104 -163 7 -54 30 -121 61 -175 27 -48 27
-48 25 37 -1 57 1 62 35 95 l36 35 -21 -48 c-56 -127 8 -312 140 -400 38 -26
43 -21 36 36 l-6 52 22 -43 c31 -57 76 -102 140 -138 94 -51 231 -35 275 33
48 73 -14 202 -135 279 -23 15 -41 28 -40 30 5 4 171 -37 190 -47 14 -8 19 -4
24 16 7 28 1 99 -10 126 -5 12 0 18 17 23 13 3 36 18 51 33 l27 27 69 -75 c59
-63 69 -78 64 -101 -7 -36 11 -69 100 -179 64 -79 72 -94 60 -106 -8 -8 -14
-23 -14 -33 0 -10 38 -93 84 -185 64 -126 81 -168 70 -172 -27 -10 -14 -77 47
-257 59 -172 60 -180 43 -193 -36 -26 -30 -104 31 -408 17 -86 21 -120 15
-121 -3 0 -16 -6 -29 -13 -22 -12 -23 -17 -17 -69 4 -31 9 -66 12 -78 5 -19 0
-22 -41 -28 -26 -4 -54 -9 -63 -11 -15 -3 -190 -48 -232 -59 -8 -2 -49 -16
-90 -31 -244 -88 -433 -198 -566 -330 -224 -222 -194 -405 89 -544 101 -50
254 -105 324 -116 19 -3 38 -7 42 -10 10 -5 47 -13 261 -50 14 -3 45 -7 70
-10 25 -3 61 -8 80 -11 19 -3 55 -7 80 -9 25 -2 92 -7 150 -11 132 -10 581
-11 718 -1 602 42 1014 177 1127 371 155 264 -276 636 -915 790 -92 22 -144
32 -174 35 -4 1 -5 9 -1 18 26 63 11 130 -26 120 -10 -3 -16 0 -13 7 30 83 95
319 96 344 0 35 -18 65 -34 56 -34 -22 43 210 102 304 38 61 39 63 21 79 -18
15 -18 18 23 77 23 33 59 84 79 112 36 50 47 96 27 109 -6 4 41 58 105 121 64
63 121 112 126 108 19 -11 96 -5 135 11 21 9 53 29 69 44 44 42 98 53 175 36
42 -9 30 -18 -60 -45 -41 -13 -79 -27 -84 -32 -6 -4 -17 -8 -26 -8 -9 0 -33
-17 -53 -38 -28 -28 -38 -48 -41 -80 -2 -23 -1 -44 3 -46 4 -3 42 2 86 10 44
7 82 13 85 13 3 0 -11 -8 -30 -19 -75 -41 -140 -119 -140 -170 0 -52 58 -99
123 -102 76 -2 134 24 195 91 l32 36 -4 -33 -4 -33 36 22 c59 35 105 91 128
155 12 34 12 114 0 154 l-7 25 21 -25 c17 -20 20 -35 17 -77 -2 -29 0 -50 5
-47 17 11 56 91 69 141 15 63 81 133 174 184 l60 33 -70 -75 c-105 -113 -149
-208 -123 -265 10 -21 68 -62 68 -47 0 19 153 163 173 163 4 0 -8 -19 -26 -43
-34 -45 -85 -151 -93 -194 -11 -58 31 -103 96 -103 72 0 152 126 186 295 27
130 20 356 -13 442 -3 7 2 13 11 13 14 0 15 10 9 72 -4 48 -3 69 4 65 6 -4 13
-20 16 -36 11 -56 66 -87 105 -62 11 7 10 22 -8 82 -68 234 -187 372 -394 458
-118 49 -228 60 -297 30 -23 -11 -47 -15 -58 -11 -11 4 -42 36 -69 72 -89 117
-212 220 -318 265 -57 24 -145 55 -174 60 -14 3 -47 9 -75 14 -74 14 -241 11
-319 -5 -107 -22 -201 -82 -180 -115 22 -35 119 -43 176 -14 16 7 28 10 28 6
0 -12 -33 -55 -58 -75 -21 -17 -22 -20 -7 -35 8 -10 23 -18 33 -18 39 -2 110
22 167 54 l60 35 -30 -33 c-43 -47 -66 -67 -98 -85 -26 -14 -26 -16 -13 -42
16 -32 10 -82 -10 -82 -22 0 -107 -45 -143 -76 -25 -21 -29 -29 -20 -40 6 -8
15 -11 20 -8 5 3 9 2 9 -1 0 -3 -15 -12 -33 -20 -47 -20 -140 -91 -149 -115
-5 -13 -2 -22 7 -27 12 -7 11 -18 -10 -68 -25 -62 -36 -128 -22 -133 18 -8 66
19 107 59 24 24 40 39 37 32 -4 -6 -12 -35 -18 -65 -22 -112 -20 -115 47 -72
54 35 99 104 124 189 l20 70 -5 -80 c-2 -44 -6 -89 -8 -100 -3 -11 -8 -42 -12
-69 -6 -45 -5 -48 12 -44 16 4 22 -3 31 -37 20 -76 119 -136 195 -119 30 6 31
5 17 -12 -41 -54 -74 -83 -81 -72 -6 9 -21 -1 -51 -32 -37 -39 -62 -79 -133
-215 -7 -13 -19 -19 -35 -17 -14 1 -30 -1 -36 -5 -30 -22 -119 -186 -154 -285
-8 -20 -24 -41 -36 -47 -13 -5 -30 -20 -38 -33 -16 -25 -52 -127 -61 -174 -3
-16 -12 -56 -19 -89 l-13 -60 -7 36 c-12 56 -42 99 -69 99 -25 0 -25 0 -63
195 -10 54 -44 174 -58 208 -20 45 -51 78 -68 72 -9 -4 -27 35 -56 122 -67
198 -108 274 -156 293 -15 5 -32 31 -51 77 -69 164 -96 213 -134 239 -17 12
-25 13 -36 4 -11 -9 -21 5 -54 76 l-41 87 30 60 c27 54 29 67 26 141 -3 78
-29 165 -56 181 -22 14 -8 23 22 14 51 -14 59 -12 52 16 -4 16 1 34 16 55 l22
32 18 -41 c36 -79 84 -126 149 -146 l24 -7 -8 73 c-11 97 -14 284 -5 299 4 6
10 -15 13 -48 12 -114 67 -220 147 -283 19 -15 46 -30 58 -34 23 -7 24 -6 17
52 -3 32 -11 82 -16 112 -10 59 -5 78 10 40 17 -45 77 -100 133 -124 l36 -14
-3 57 c-3 49 -25 135 -50 195 -5 12 -3 17 8 17 23 0 29 15 18 43 -16 42 -87
105 -181 160 -42 25 -43 27 -17 27 31 0 34 11 12 44 -26 39 -178 136 -213 136
-6 0 -8 9 -5 20 3 11 0 27 -7 35 -10 12 -9 16 3 21 9 3 20 19 26 35 9 26 7 30
-18 44 -29 15 -154 145 -147 152 2 3 31 -14 63 -36 115 -79 229 -108 259 -66
12 17 11 22 -9 44 -33 36 -67 87 -67 100 0 6 17 2 40 -10 57 -30 147 -36 193
-14 21 9 37 24 37 33 0 8 -20 34 -43 57 -83 79 -250 126 -464 130 -72 2 -133
2 -135 0z m-119 -333 c-18 -7 -34 5 -53 39 l-20 33 42 -34 c22 -19 37 -37 31
-38z m-1346 -514 c-12 -21 -20 -3 -21 50 l-1 57 13 -50 c8 -27 12 -53 9 -57z
m1571 27 c-4 -8 -8 -15 -10 -15 -2 0 -4 7 -4 15 0 8 4 15 10 15 5 0 7 -7 4
-15z m1507 -366 c-13 -11 -26 -17 -29 -15 -3 3 6 14 19 25 13 11 26 17 29 14
3 -2 -6 -13 -19 -24z m-2922 -5 c17 -8 29 -20 25 -25 -6 -11 -35 3 -54 25 -16
20 -11 20 29 0z m111 -63 c-1 -3 -7 -17 -14 -30 l-13 -24 -17 25 c-23 35 -12
60 20 46 13 -6 24 -14 24 -17z m2797 -298 c-3 -10 -5 -4 -5 12 0 17 2 24 5 18
2 -7 2 -21 0 -30z m-199 -52 c1 -16 -2 -32 -6 -35 -5 -3 -8 12 -8 34 0 45 11
46 14 1z m1214 -41 c-3 -20 -8 -28 -14 -22 -10 10 0 64 11 57 4 -2 6 -18 3
-35z m-148 -285 c-10 -8 -23 -14 -29 -14 -5 -1 1 8 15 19 14 10 27 17 29 14 3
-2 -4 -11 -15 -19z m-804 -5 c0 -5 -7 -10 -16 -10 -8 0 -12 5 -9 10 3 6 10 10
16 10 5 0 9 -4 9 -10z m747 -44 c-9 -23 -37 -20 -37 3 0 21 20 33 34 20 5 -4
6 -15 3 -23z"/>
</g>
</svg>
