<svg width="31" height="37" viewBox="0 0 31 37" fill="none" xmlns="http://www.w3.org/2000/svg">
<g id="Icon/Lock">
<g id="lock-alt">
<path id="Shape" fill-rule="evenodd" clip-rule="evenodd" d="M24.3407 11.2518V9.18518C24.3407 4.47777 20.8389 0.459253 16.3037 0.0574016C13.7778 -0.172228 11.3093 0.631476 9.52963 2.29629C7.75 3.96111 6.71667 6.2574 6.71667 8.72592V11.1944C3.15741 11.6537 0.344444 14.7537 0.344444 18.4278V29.7944C0.287037 33.6407 3.44444 36.7407 7.23333 36.7407H23.7093C27.5556 36.7407 30.6556 33.6407 30.6556 29.7944V18.3704C30.713 14.7537 27.9 11.7111 24.3407 11.2518ZM10.6778 3.61666C12.1704 2.23888 14.1222 1.6074 16.1315 1.77962C19.7481 2.06666 22.5611 5.33888 22.5611 9.18518V11.1944H8.38148V8.78333C8.38148 6.77407 9.24259 4.93703 10.6778 3.61666ZM23.7093 35.0185C26.5796 35.0185 28.9333 32.6648 28.9333 29.7944V18.3704C28.9333 15.3278 26.4074 12.8593 23.25 12.8593H7.63519C4.53519 12.8593 2.00926 15.3852 2.00926 18.4852V29.7944C2.00926 32.6648 4.36296 35.0185 7.23333 35.0185H23.7093Z" fill="#979797"/>
<path id="Path" d="M15.5 20.6667C15.0407 20.6667 14.6389 21.0685 14.6389 21.5278V23.1352V24.7426V27.9C14.6389 28.3592 15.0407 28.7611 15.5 28.7611C15.9593 28.7611 16.3611 28.3592 16.3611 27.9V24.7426V23.1352V21.5278C16.3611 21.0685 15.9593 20.6667 15.5 20.6667Z" fill="#979797"/>
</g>
</g>
</svg>
