<svg width="31" height="37" viewBox="0 0 31 37" fill="none" xmlns="http://www.w3.org/2000/svg">
<g id="Icon/User">
<g id="Icon">
<path id="Shape" fill-rule="evenodd" clip-rule="evenodd" d="M22.4074 13.3611C22.4074 17.2963 19.213 20.4907 15.2778 20.4907C11.3426 20.4907 8.14815 17.3426 8.14815 13.4074C8.14815 9.47222 11.3426 6.27777 15.2778 6.27777C19.213 6.27777 22.4074 9.42592 22.4074 13.3611ZM21.0185 13.4074C21.0185 10.213 18.4259 7.66666 15.2778 7.66666C12.1296 7.66666 9.53704 10.1667 9.53704 13.3611C9.53704 16.5555 12.1296 19.1018 15.2778 19.1018C18.4259 19.1018 21.0185 16.6018 21.0185 13.4074Z" fill="#979797"/>
<path id="Path" d="M29.8611 29.5185C25.8333 26.0926 20.6481 24.2408 15.2778 24.2408C9.9074 24.2408 4.72222 26.0926 0.694441 29.5185C0.416663 29.75 0.370367 30.213 0.601849 30.4908C0.83333 30.7685 1.29629 30.8148 1.57407 30.5833C5.37037 27.3889 10.1852 25.6296 15.2315 25.6296C20.2778 25.6296 25.1389 27.3889 28.8889 30.5833C29.0278 30.6759 29.1667 30.7685 29.3518 30.7685C29.537 30.7685 29.7222 30.6759 29.8611 30.537C30.1852 30.213 30.1389 29.75 29.8611 29.5185Z" fill="#979797"/>
</g>
</g>
</svg>
